# Blender v2.83.4 OBJ File: 'Rock_Assets.blend'
# www.blender.org
mtllib MidRock.mtl
o Cube.001_Cube.002
v 1.215040 -0.257417 -3.310581
v -1.010324 -0.120077 -2.535097
v -1.292874 0.692656 -2.886669
v -0.953504 0.749973 -3.503651
v -0.656565 -0.139646 -3.578675
v 0.480530 0.557255 -3.587154
v 0.854148 -0.264812 -3.468752
v -0.901336 0.548894 -3.709293
v -0.450374 0.795760 -3.581829
v 0.036047 0.622900 -3.733027
v 1.306527 -0.042593 -3.324935
v 1.296350 -0.187403 -2.914489
v 1.409704 0.089595 -2.894373
v -0.027601 0.475269 -2.266067
v 0.066877 0.730539 -2.449160
v -0.566345 0.555166 -2.405892
v -0.274058 0.172827 -2.282140
v -1.019005 0.268684 -2.369711
v -1.074762 0.627442 -2.485853
v -1.331085 0.337264 -2.763114
v -1.439896 0.412487 -3.034645
v -1.311135 0.369389 -3.471084
v 0.534525 0.289862 -3.591802
v 0.888411 0.148091 -3.580057
v -0.548191 -0.168976 -2.444528
v 0.244625 -0.126177 -2.427983
v -0.210167 -0.293540 -2.646880
v -0.706670 -0.351823 -2.675482
v -0.500144 -0.470416 -3.031857
v -1.189411 -0.201932 -2.898446
v 0.844810 0.711395 -2.752872
v 1.172096 0.565086 -2.907799
v 0.906145 0.728943 -3.200514
v 1.045511 0.455826 -3.501201
v 0.622147 -0.484941 -2.951654
v 1.008343 -0.347201 -2.805664
v 1.009693 -0.411071 -3.157487
v 0.060406 -0.433436 -2.936809
v 0.132201 -0.469962 -3.277627
v 0.444119 -0.279208 -3.448711
v -0.930819 0.264680 -3.740107
v -1.100973 -0.090509 -3.341588
v -0.444825 0.388327 -3.735665
v -0.031736 -0.131622 -3.686527
v 1.147318 0.357957 -2.630918
v 1.255461 -0.083568 -2.659313
v 0.876443 0.453660 -2.473997
v 0.792904 -0.348619 -2.608212
v 0.538145 0.148528 -2.331642
v 0.355079 0.682190 -2.561216
v 0.329739 0.764252 -3.453495
v -0.328393 0.930502 -2.923215
v -1.032349 0.867233 -2.865563
vt 0.757592 0.720904
vt 0.825759 0.601908
vt 0.866624 0.687352
vt 0.914634 0.597732
vt 0.739626 0.594233
vt 0.769515 0.541085
vt 0.867680 0.542862
vt 0.947690 0.326937
vt 0.874217 0.232310
vt 0.985561 0.261142
vt 0.975089 0.179599
vt 0.863810 0.074896
vt 0.984465 0.070087
vt 0.791906 0.048013
vt 0.823509 0.020681
vt 0.010960 0.719622
vt 0.083693 0.687014
vt 0.116749 0.771932
vt 0.214128 0.845737
vt 0.241976 0.727317
vt 0.094537 0.572004
vt 0.217781 0.598277
vt 0.613764 0.631162
vt 0.501969 0.564416
vt 0.612867 0.569402
vt 0.480038 0.630701
vt 0.412668 0.642416
vt 0.418587 0.546063
vt 0.527479 0.478261
vt 0.611550 0.496615
vt 0.441023 0.273736
vt 0.453105 0.186045
vt 0.524503 0.236212
vt 0.463649 0.091644
vt 0.552971 0.118132
vt 0.488636 0.008870
vt 0.626291 0.016227
vt 0.695934 0.107711
vt 0.669767 0.229516
vt 0.612189 0.241538
vt 0.275227 0.505612
vt 0.214679 0.482326
vt 0.300121 0.419061
vt 0.247848 0.412469
vt 0.068242 0.310035
vt 0.300938 0.339444
vt 0.188138 0.516587
vt 0.073248 0.447678
vt 0.045088 0.361405
vt 0.537248 0.327467
vt 0.484470 0.411978
vt 0.597941 0.406396
vt 0.647530 0.303683
vt 0.654248 0.365330
vt 0.465909 0.358937
vt 0.472610 0.972354
vt 0.415676 0.905843
vt 0.486067 0.902413
vt 0.455305 0.799123
vt 0.602201 0.832739
vt 0.411148 0.730911
vt 0.374482 0.826407
vt 0.572356 0.714369
vt 0.374796 0.735375
vt 0.378897 0.696049
vt 0.922596 0.515864
vt 0.984094 0.412917
vt 0.986294 0.521632
vt 0.782524 0.419656
vt 0.872325 0.375663
vt 0.749306 0.261337
vt 0.803897 0.271498
vt 0.201741 0.209340
vt 0.333793 0.041749
vt 0.348328 0.153661
vt 0.032433 0.181473
vt 0.219904 0.067657
vt 0.041842 0.076780
vt 0.224213 0.006113
vt 0.920085 0.704992
vt 0.946075 0.665409
vt 0.772784 0.166370
vt 0.158444 0.847244
vt 0.038840 0.835612
vt 0.013835 0.553835
vt 0.419907 0.134907
vt 0.393808 0.019058
vt 0.134909 0.426031
vt 0.535200 0.458774
vt 0.634751 0.438270
vt 0.442774 0.459768
vt 0.585774 0.937882
vt 0.387642 0.984307
vt 0.374340 0.908466
vt 0.806895 0.499435
vt 0.757524 0.342568
vt 0.322923 0.272760
vt 0.343517 0.210486
vn 0.5691 0.4243 -0.7043
vn 0.9881 0.0745 0.1344
vn 0.8325 -0.1102 -0.5430
vn 0.7711 -0.6170 0.1567
vn 0.7418 0.6594 0.1220
vn 0.6636 0.3573 0.6572
vn 0.6607 -0.3430 0.6677
vn -0.0070 -0.6243 0.7812
vn -0.0662 -0.2111 0.9752
vn 0.0459 -0.8134 0.5799
vn -0.0205 -0.5913 0.8062
vn -0.4594 -0.0550 0.8865
vn -0.5155 -0.5412 0.6643
vn -0.4389 0.5245 0.7295
vn -0.8823 -0.0590 0.4670
vn -0.7754 0.6161 0.1379
vn -0.9960 0.0868 -0.0217
vn -0.7172 -0.6915 0.0858
vn -0.8386 0.0518 -0.5422
vn -0.5940 -0.6608 -0.4589
vn 0.1454 -0.6550 -0.7414
vn 0.2279 -0.1032 -0.9682
vn 0.1455 -0.5997 -0.7868
vn 0.1358 -0.0848 -0.9871
vn 0.2630 0.3963 -0.8796
vn 0.6284 -0.6003 -0.4946
vn -0.0099 -0.9484 0.3169
vn -0.1879 -0.8841 0.4278
vn -0.1540 -0.9855 -0.0705
vn -0.2073 -0.6530 -0.7284
vn 0.0400 -0.4769 -0.8780
vn 0.0050 -0.9370 -0.3492
vn 0.3955 0.4090 0.8223
vn 0.2841 0.8928 0.3495
vn 0.2094 0.9041 -0.3724
vn 0.2298 0.9241 0.3052
vn 0.0424 -0.9952 0.0879
vn 0.4545 -0.8085 0.3738
vn 0.3092 -0.9363 -0.1664
vn 0.1769 -0.7469 0.6409
vn -0.3104 0.3841 -0.8695
vn -0.3242 -0.2087 -0.9226
vn 0.0005 -0.1076 -0.9942
vn 0.1548 0.4143 -0.8969
vn -0.0449 0.8422 -0.5373
vn 0.2023 -0.0905 0.9751
vn 0.1251 0.7872 0.6038
vn 0.0478 0.3020 0.9521
vn 0.0268 0.9890 0.1454
vn -0.1015 0.5480 0.8303
vn -0.3116 0.9361 0.1628
vn -0.3972 0.7929 -0.4620
vn 0.3788 0.9005 -0.2136
usemtl Rock
s 1
f 34/1/1 13/2/2 11/3/3
f 11/3/3 13/2/2 12/4/4
f 32/5/5 45/6/6 13/2/2
f 13/2/2 46/7/7 12/4/4
f 26/8/8 17/9/9 27/10/10
f 17/9/9 25/11/11 27/10/10
f 18/12/12 25/11/11 17/9/9
f 18/12/12 2/13/13 25/11/11
f 19/14/14 20/15/15 18/12/12
f 3/16/16 21/17/17 20/18/15
f 2/19/13 20/18/15 30/20/18
f 20/18/15 21/17/17 30/20/18
f 3/16/16 22/21/19 21/17/17
f 30/20/18 22/21/19 42/22/20
f 40/23/21 24/24/22 7/25/23
f 23/26/24 6/27/25 24/24/22
f 6/27/25 34/28/1 24/24/22
f 24/24/22 11/29/3 7/25/23
f 7/25/23 11/29/3 1/30/26
f 26/31/8 27/32/10 38/33/27
f 28/34/28 29/35/29 27/32/10
f 27/32/10 29/35/29 38/33/27
f 30/36/18 29/35/29 28/34/28
f 42/37/20 5/38/30 29/35/29
f 29/35/29 44/39/31 39/40/32
f 45/41/6 32/42/5 47/43/33
f 47/43/33 32/42/5 31/44/34
f 31/44/34 51/45/35 50/46/36
f 13/47/2 34/48/1 32/42/5
f 34/48/1 6/49/25 51/45/35
f 26/31/8 38/33/27 35/50/37
f 36/51/38 35/50/37 37/52/39
f 40/53/21 7/54/23 37/52/39
f 48/55/40 26/31/8 35/50/37
f 22/56/19 8/57/41 41/58/42
f 41/58/42 43/59/43 5/60/30
f 41/58/42 10/61/44 43/59/43
f 8/57/41 9/62/45 10/61/44
f 43/59/43 10/61/44 44/63/31
f 10/61/44 9/64/45 51/65/35
f 46/66/7 48/67/40 12/68/4
f 47/69/33 49/70/46 46/66/7
f 49/70/46 26/8/8 48/67/40
f 15/71/47 14/72/48 49/70/46
f 52/73/49 19/74/14 16/75/50
f 52/73/49 9/76/45 53/77/51
f 9/76/45 4/78/52 53/77/51
f 53/77/51 4/78/52 3/79/16
f 53/77/51 3/79/16 19/74/14
f 1/80/26 11/3/3 12/4/4
f 37/81/39 1/80/26 12/4/4
f 13/2/2 45/6/6 46/7/7
f 49/70/46 14/72/48 17/9/9
f 15/71/47 16/82/50 14/72/48
f 14/72/48 16/82/50 17/9/9
f 17/9/9 16/82/50 18/12/12
f 16/82/50 19/14/14 18/12/12
f 49/70/46 17/9/9 26/8/8
f 18/83/12 20/18/15 2/19/13
f 19/84/14 3/16/16 20/18/15
f 30/20/18 21/17/17 22/21/19
f 22/21/19 3/16/16 4/85/52
f 44/63/31 23/26/24 40/23/21
f 40/23/21 23/26/24 24/24/22
f 24/24/22 34/28/1 11/29/3
f 25/86/11 2/87/13 28/34/28
f 27/32/10 25/86/11 28/34/28
f 2/87/13 30/36/18 28/34/28
f 38/33/27 29/35/29 39/40/32
f 30/36/18 42/37/20 29/35/29
f 29/35/29 5/38/30 44/39/31
f 39/40/32 44/39/31 40/53/21
f 47/43/33 31/44/34 50/46/36
f 31/44/34 32/42/5 33/88/53
f 31/44/34 33/88/53 51/45/35
f 33/88/53 32/42/5 34/48/1
f 51/45/35 33/88/53 34/48/1
f 36/51/38 48/55/40 35/50/37
f 12/89/4 36/51/38 37/52/39
f 38/33/27 39/40/32 35/50/37
f 35/50/37 40/53/21 37/52/39
f 39/40/32 40/53/21 35/50/37
f 37/52/39 7/54/23 1/90/26
f 12/91/4 48/55/40 36/51/38
f 42/92/20 41/58/42 5/60/30
f 41/58/42 8/57/41 10/61/44
f 5/60/30 43/59/43 44/63/31
f 44/63/31 10/61/44 23/26/24
f 23/26/24 10/61/44 6/27/25
f 42/92/20 22/56/19 41/58/42
f 22/56/19 4/93/52 8/57/41
f 8/57/41 4/94/52 9/62/45
f 10/61/44 51/65/35 6/27/25
f 45/95/6 47/69/33 46/66/7
f 46/66/7 49/70/46 48/67/40
f 47/69/33 15/71/47 49/70/46
f 47/69/33 50/96/36 15/71/47
f 51/45/35 9/76/45 52/73/49
f 50/46/36 51/45/35 52/73/49
f 15/97/47 50/46/36 52/73/49
f 15/97/47 52/73/49 16/98/50
f 52/73/49 53/77/51 19/74/14
