# Blender v2.83.4 OBJ File: 'Bow&ArrowAssets.blend'
# www.blender.org
mtllib ArrowObject.mtl
o Cube_Cube.002
v -0.120328 6.086242 22.249336
v 0.157264 6.086242 22.249336
v -0.120328 2.155599 -4.415067
v 0.157264 2.155599 -4.415067
v -0.120328 5.811617 22.289818
v 0.157264 5.811617 22.289818
v -0.120328 1.880975 -4.374583
v 0.157264 1.880975 -4.374583
v 0.018468 6.134989 22.242149
v 0.018468 2.204346 -4.422253
v 0.018468 1.832228 -4.367397
v 0.018468 5.762870 22.297005
v -0.169602 2.018287 -4.394825
v 0.206538 2.018287 -4.394825
v -0.169602 5.948929 22.269577
v 0.206538 5.948929 22.269577
v -0.092127 6.425749 22.685104
v 0.129063 6.425749 22.685104
v -0.092127 5.612294 22.805017
v 0.129063 5.612294 22.805017
v 0.018468 6.827477 22.625885
v 0.018468 5.210566 22.864237
v -0.299538 6.019022 22.745060
v 0.336473 6.019022 22.745060
v 0.018468 6.338544 24.912613
v -0.120328 2.624958 -5.121465
v 0.157264 2.624958 -5.121465
v -0.120328 1.227766 -4.915503
v 0.157264 1.227766 -4.915503
v 0.018468 2.505972 -4.909491
v 0.018468 1.402855 -4.746879
v -0.169602 1.989044 -4.593264
v 0.206538 1.989044 -4.593264
v -0.120328 2.436952 -7.057058
v 0.157264 2.436952 -7.057058
v -0.120328 0.849254 -6.823013
v 0.157264 0.849254 -6.823013
v -0.169602 1.705785 -6.514817
v 0.206538 1.705785 -6.514817
v 0.157264 1.038510 -5.869258
v 0.206538 1.847414 -5.554041
v 0.157264 2.530955 -6.089262
v 0.157264 1.013720 -5.994188
v 0.206538 1.828863 -5.679891
v 0.157264 2.518641 -6.216031
v 0.206538 1.838139 -5.616965
v 0.177704 2.239957 -5.930433
v 0.184347 1.472443 -5.758716
v -0.145740 2.178432 -5.813233
v -0.143982 1.426829 -5.717936
v -0.169602 1.847414 -5.554041
v -0.169602 1.855577 -5.498666
v -0.169602 1.839252 -5.609415
v -0.120328 1.027602 -5.924229
v -0.120328 1.049418 -5.814287
v -0.120328 2.536373 -6.033482
v -0.120328 2.525537 -6.145041
vt 0.676817 0.987041
vt 0.668577 0.986838
vt 0.668577 0.013569
vt 0.676817 0.013773
vt 0.643856 0.012959
vt 0.652096 0.013162
vt 0.652097 0.986430
vt 0.643856 0.986226
vt 0.627376 0.012551
vt 0.635616 0.012755
vt 0.635616 0.986023
vt 0.627376 0.985819
vt 0.660337 0.013366
vt 0.660337 0.986634
vt 0.685057 0.987245
vt 0.685057 0.013977
vt 0.693297 0.014180
vt 0.693297 0.987449
vt 0.943753 0.136938
vt 0.933888 0.132713
vt 0.953681 0.106613
vt 0.963502 0.108101
vt 0.924614 0.125864
vt 0.915395 0.118943
vt 0.934726 0.092499
vt 0.942808 0.101430
vt 0.899153 0.106626
vt 0.888613 0.102882
vt 0.899509 0.067763
vt 0.918481 0.078858
vt 0.950342 0.144743
vt 0.971406 0.118267
vt 0.908519 0.110702
vt 0.930486 0.083516
vt 0.956950 0.153768
vt 0.987473 0.133262
vt 0.987473 0.041447
vt 0.819471 0.283097
vt 0.817800 0.278549
vt 0.861387 0.271944
vt 0.847199 0.283114
vt 0.813107 0.291154
vt 0.817857 0.290190
vt 0.861454 0.296581
vt 0.813109 0.299970
vt 0.807033 0.283269
vt 0.808705 0.287817
vt 0.765117 0.294421
vt 0.779305 0.283252
vt 0.808704 0.290145
vt 0.765117 0.296750
vt 0.813108 0.288826
vt 0.817857 0.287862
vt 0.861454 0.294252
vt 0.813109 0.297642
vt 0.808647 0.278503
vt 0.765050 0.272113
vt 0.813188 0.370709
vt 0.854058 0.381962
vt 0.858136 0.428067
vt 0.813220 0.406249
vt 0.772467 0.381979
vt 0.768368 0.428001
vt 0.813158 0.355501
vt 0.839632 0.361854
vt 0.868192 0.372771
vt 0.813161 0.358702
vt 0.784849 0.362342
vt 0.758343 0.372804
vt 0.773203 0.300445
vt 0.813136 0.303124
vt 0.813177 0.349330
vt 0.767874 0.360279
vt 0.853362 0.300304
vt 0.858663 0.360245
vt 0.781053 0.365137
vt 0.813162 0.356810
vt 0.813165 0.360447
vt 0.757873 0.375750
vt 0.837967 0.363204
vt 0.868659 0.375727
vt 0.813158 0.353173
vt 0.867825 0.366291
vt 0.758712 0.366331
vt 0.759081 0.364515
vt 0.813156 0.352300
vt 0.867458 0.364467
vt 0.813208 0.411032
vt 0.752307 0.440569
vt 0.874196 0.440658
vn 0.0000 0.9893 -0.1458
vn 0.3346 0.9323 -0.1374
vn 0.2829 0.9415 0.1833
vn 0.0000 0.9699 0.2433
vn 0.0000 -0.8585 0.5128
vn 0.2829 -0.8485 0.4472
vn 0.3346 -0.9323 0.1374
vn -0.0000 -0.9893 0.1458
vn -0.9981 0.0090 0.0613
vn -0.9678 -0.2287 0.1051
vn -0.8944 -0.4262 -0.1354
vn -0.9930 -0.0172 -0.1165
vn 0.9981 0.0090 0.0613
vn 0.9678 0.2493 0.0346
vn 0.8944 0.3690 -0.2527
vn 0.9930 -0.0172 -0.1165
vn -0.2829 -0.8485 0.4472
vn -0.3346 -0.9323 0.1374
vn -0.3346 0.9323 -0.1374
vn -0.2829 0.9415 0.1833
vn 0.9678 -0.2287 0.1051
vn 0.8944 -0.4262 -0.1354
vn -0.9678 0.2493 0.0346
vn -0.8944 0.3690 -0.2527
vn 0.8073 -0.4944 -0.3223
vn 0.9090 -0.4135 -0.0528
vn 0.9373 -0.3471 -0.0320
vn 0.9090 0.3807 -0.1699
vn 0.8987 0.4264 -0.1020
vn -0.8987 0.4264 -0.1020
vn -0.9090 0.3807 -0.1699
vn -0.8073 -0.4944 -0.3223
vn -0.9373 -0.3471 -0.0320
vn -0.9090 -0.4135 -0.0528
vn -0.8073 0.3804 -0.4512
vn -0.9373 0.3231 -0.1308
vn 0.8073 0.3804 -0.4512
vn 0.9373 0.3231 -0.1308
vn 0.8987 -0.4377 0.0254
vn -0.8987 -0.4377 0.0254
vn -0.9247 0.3757 0.0606
vn -0.9247 -0.3423 0.1665
vn 0.9247 0.3757 0.0606
vn 0.9247 -0.3423 0.1665
vn -0.1845 -0.6366 0.7488
vn 0.0000 -0.6477 0.7619
vn -0.9966 0.0828 0.0039
vn -0.9966 0.0120 0.0811
vn 0.1845 0.8256 0.5333
vn 0.0000 0.8400 0.5426
vn -0.9966 -0.0782 0.0276
vn 0.9966 -0.0781 0.0276
vn 0.9966 0.0120 0.0810
vn 0.1845 -0.6366 0.7488
vn -0.1845 0.8256 0.5333
vn 0.9966 0.0827 0.0039
vn 1.0000 0.0002 0.0012
vn 0.9980 -0.0630 0.0109
vn 0.9980 -0.0629 0.0109
vn 1.0000 0.0002 0.0016
vn 0.9980 0.0634 -0.0078
vn 0.9980 0.0633 -0.0077
vn -1.0000 0.0001 0.0011
vn -0.9978 0.0652 -0.0085
vn -0.9979 0.0636 -0.0078
vn -1.0000 0.0002 0.0012
vn -0.9978 -0.0650 0.0107
vn -0.9979 -0.0631 0.0109
vn 1.0000 0.0002 0.0015
vn 0.9977 0.0675 -0.0083
vn 0.9977 -0.0671 0.0115
vn 0.9978 0.0651 -0.0084
vn 1.0000 0.0002 0.0011
vn 0.9979 -0.0646 0.0105
vn -0.9977 -0.0672 0.0116
vn -1.0000 0.0002 0.0015
vn -0.9977 0.0677 -0.0083
vn -1.0000 0.0002 0.0016
vn -0.9980 -0.0630 0.0109
vn -0.9980 0.0635 -0.0078
usemtl Bow&Arrow
s 1
f 9/1/1 2/2/2 4/3/3 10/4/4
f 11/5/5 8/6/6 6/7/7 12/8/8
f 13/9/9 7/10/10 5/11/11 15/12/12
f 14/13/13 4/3/14 2/2/15 16/14/16
f 7/10/17 11/5/5 12/8/8 5/11/18
f 1/15/19 9/1/1 10/4/4 3/16/20
f 8/6/21 14/13/13 16/14/16 6/7/22
f 3/16/23 13/17/9 15/18/12 1/15/24
f 12/19/25 6/20/22 20/21/26 22/22/27
f 16/23/16 2/24/15 18/25/28 24/26/29
f 1/27/24 15/28/12 23/29/30 17/30/31
f 5/31/11 12/19/32 22/22/33 19/32/34
f 9/33/35 1/27/24 17/30/31 21/34/36
f 2/24/15 9/33/37 21/34/38 18/25/28
f 6/20/22 16/23/16 24/26/39 20/21/26
f 15/35/12 5/31/11 19/32/34 23/36/40
f 21/34/36 17/30/31 25/37/41
f 23/36/40 19/32/34 25/37/42
f 18/25/28 21/34/38 25/37/43
f 20/21/26 24/26/39 25/37/44
f 22/22/27 20/21/26 25/37/44
f 24/26/29 18/25/28 25/37/43
f 19/32/34 22/22/33 25/37/42
f 17/30/31 23/29/30 25/37/41
f 11/38/5 7/39/17 28/40/45 31/41/46
f 13/42/9 3/43/23 26/44/47 32/45/48
f 10/46/4 4/47/3 27/48/49 30/49/50
f 7/50/10 13/42/9 32/45/48 28/51/51
f 14/52/13 8/53/21 29/54/52 33/55/53
f 8/53/6 11/38/5 31/41/46 29/54/54
f 3/56/20 10/46/4 30/49/50 26/57/55
f 4/47/14 14/52/13 33/55/53 27/48/56
f 44/58/57 43/59/58 37/60/59 39/61/60
f 45/62/61 44/58/57 39/61/60 35/63/62
f 51/64/63 49/65/64 57/66/65 53/67/66
f 50/68/67 51/64/63 53/67/66 54/69/68
f 27/70/56 33/71/53 41/72/69 42/73/70
f 33/71/53 29/74/52 40/75/71 41/72/69
f 47/76/72 46/77/73 44/78/57 45/79/61
f 46/77/73 48/80/74 43/81/58 44/78/57
f 41/82/69 40/83/71 48/80/74 46/77/73
f 42/84/70 41/82/69 46/77/73 47/76/72
f 55/85/75 52/86/76 51/64/63 50/68/67
f 52/86/76 56/87/77 49/65/64 51/64/63
f 32/45/48 26/44/47 56/87/77 52/86/76
f 54/69/68 53/67/66 38/88/78 36/89/79
f 28/51/51 32/45/48 52/86/76 55/85/75
f 53/67/66 57/66/65 34/90/80 38/88/78
